<svg width="483" height="482" viewBox="0 0 483 482" fill="none" xmlns="http://www.w3.org/2000/svg">
<path d="M29.0224 430.517C29.5627 430.602 30.0676 430.737 30.5368 430.922C31.0061 431.093 31.454 431.299 31.8806 431.541L30.8994 433.077C30.4302 432.792 29.9467 432.55 29.449 432.351C28.9513 432.138 28.3612 432.031 27.6786 432.031C26.8965 432.031 26.2566 432.202 25.7589 432.543C25.2754 432.87 25.0337 433.304 25.0337 433.844C25.0337 434.299 25.2043 434.719 25.5456 435.103C25.9011 435.487 26.5339 435.928 27.444 436.425C28.2829 436.88 28.9371 437.328 29.4063 437.769C29.8898 438.196 30.2311 438.651 30.4302 439.134C30.6292 439.604 30.7288 440.137 30.7288 440.734C30.7288 441.9 30.3306 442.81 29.5343 443.464C28.7522 444.118 27.7355 444.502 26.4841 444.616L26.2495 447.026H24.3724L24.991 444.616C24.2516 444.545 23.5832 444.389 22.986 444.147C22.3888 443.891 21.8413 443.564 21.3436 443.166L22.5594 441.651C23.0144 442.064 23.5192 442.398 24.0738 442.654C24.6284 442.895 25.2683 443.016 25.9935 443.016C26.8325 443.016 27.508 442.831 28.0199 442.462C28.5318 442.078 28.7878 441.566 28.7878 440.926C28.7878 440.57 28.7095 440.243 28.5531 439.945C28.3967 439.646 28.1194 439.333 27.7213 439.006C27.3231 438.679 26.7543 438.309 26.0149 437.897C24.991 437.314 24.2587 436.745 23.8179 436.191C23.3913 435.636 23.178 434.925 23.178 434.058C23.178 433.361 23.3628 432.749 23.7325 432.223C24.1023 431.697 24.6142 431.278 25.2683 430.965C25.9224 430.652 26.6761 430.481 27.5293 430.453L27.7639 428.043H29.641L29.0224 430.517ZM41.6414 431.583C40.5749 431.583 39.6151 431.896 38.7619 432.522C37.9087 433.148 37.2332 434.015 36.7355 435.124C36.2378 436.233 35.989 437.513 35.989 438.964C35.989 440.3 36.3089 441.388 36.9488 442.227C37.5887 443.066 38.4704 443.486 39.5937 443.486C40.2479 443.486 40.8522 443.322 41.4068 442.995C41.9614 442.668 42.4306 442.22 42.8146 441.651C43.1985 441.082 43.4545 440.442 43.5824 439.731L43.7744 438.686H40.6602L40.9375 437.087H45.9501L45.1182 441.886C45.104 441.957 45.0898 442.042 45.0755 442.142C45.0755 442.227 45.0755 442.32 45.0755 442.419C45.0755 442.803 45.1822 443.08 45.3955 443.251C45.623 443.422 45.9359 443.507 46.334 443.507L45.6301 445.107C44.0659 445.107 43.2838 444.346 43.2838 442.824C42.843 443.507 42.2742 444.083 41.5774 444.552C40.8806 445.021 40.0346 445.256 39.0392 445.256C38.058 445.256 37.1763 445.021 36.3942 444.552C35.6264 444.069 35.0149 443.379 34.5599 442.483C34.119 441.573 33.8986 440.492 33.8986 439.241C33.8986 437.89 34.0906 436.639 34.4745 435.487C34.8585 434.335 35.3988 433.34 36.0956 432.501C36.7924 431.647 37.6172 430.986 38.5699 430.517C39.5369 430.048 40.5962 429.813 41.7481 429.813C42.6581 429.813 43.4616 429.941 44.1584 430.197C44.8551 430.439 45.495 430.752 46.0781 431.135L45.0116 432.757C44.4996 432.401 43.9806 432.117 43.4545 431.903C42.9425 431.69 42.3382 431.583 41.6414 431.583ZM47.594 430.261L49.6203 429.834L52.2013 442.782L58.9842 429.898L60.7759 430.88L53.0331 445H50.7082L47.594 430.261ZM61.2793 430.261L63.3057 429.834L65.8866 442.782L72.6696 429.898L74.4613 430.88L66.7185 445H64.3935L61.2793 430.261ZM91.0107 433.418C91.0107 434.157 90.8329 434.826 90.4774 435.423C90.1362 436.006 89.6811 436.539 89.1123 437.023C88.5435 437.506 87.9321 437.975 87.2779 438.43C86.638 438.871 86.0124 439.333 85.4009 439.817C84.8037 440.286 84.2846 440.798 83.8438 441.353C83.403 441.907 83.1115 442.54 82.9693 443.251H89.7522L89.4536 445H80.8789C80.8647 444.886 80.8505 444.758 80.8363 444.616C80.8221 444.474 80.815 444.339 80.815 444.211C80.815 443.215 81.0069 442.341 81.3909 441.587C81.789 440.819 82.2938 440.137 82.9053 439.54C83.531 438.942 84.1851 438.395 84.8677 437.897C85.5644 437.399 86.2186 436.93 86.83 436.489C87.4557 436.034 87.9605 435.572 88.3444 435.103C88.7426 434.634 88.9417 434.122 88.9417 433.567C88.9417 432.941 88.7284 432.444 88.3018 432.074C87.8752 431.704 87.349 431.519 86.7234 431.519C86.1119 431.519 85.5573 431.633 85.0596 431.861C84.5761 432.088 84.0927 432.408 83.6092 432.821L82.7133 431.37C83.2963 430.901 83.9291 430.524 84.6117 430.24C85.2943 429.955 86.0764 429.813 86.958 429.813C87.7685 429.813 88.4724 429.969 89.0697 430.282C89.6811 430.595 90.1575 431.022 90.4988 431.562C90.8401 432.102 91.0107 432.721 91.0107 433.418ZM97.8706 445.256C96.4486 445.256 95.3608 444.758 94.6071 443.763C93.8677 442.753 93.498 441.388 93.498 439.668C93.498 438.473 93.626 437.293 93.8819 436.127C94.1379 434.946 94.5289 433.887 95.0551 432.949C95.5812 431.996 96.2495 431.235 97.0601 430.666C97.8848 430.097 98.8518 429.813 99.961 429.813C101.383 429.813 102.464 430.318 103.203 431.327C103.957 432.323 104.334 433.681 104.334 435.401C104.334 436.596 104.206 437.783 103.95 438.964C103.694 440.13 103.303 441.189 102.777 442.142C102.25 443.08 101.575 443.834 100.75 444.403C99.9396 444.972 98.9798 445.256 97.8706 445.256ZM98.0839 443.507C98.7665 443.507 99.3637 443.286 99.8756 442.846C100.402 442.391 100.843 441.779 101.198 441.011C101.554 440.243 101.817 439.369 101.987 438.388C102.172 437.392 102.265 436.354 102.265 435.274C102.265 434.079 102.051 433.162 101.625 432.522C101.212 431.882 100.587 431.562 99.7477 431.562C99.0651 431.562 98.4608 431.79 97.9346 432.245C97.4227 432.685 96.989 433.29 96.6335 434.058C96.278 434.826 96.0078 435.707 95.8229 436.703C95.6523 437.684 95.567 438.715 95.567 439.795C95.567 440.99 95.7803 441.907 96.2069 442.547C96.6335 443.187 97.2592 443.507 98.0839 443.507ZM110.66 445.256C109.238 445.256 108.15 444.758 107.397 443.763C106.657 442.753 106.288 441.388 106.288 439.668C106.288 438.473 106.416 437.293 106.672 436.127C106.928 434.946 107.319 433.887 107.845 432.949C108.371 431.996 109.039 431.235 109.85 430.666C110.675 430.097 111.641 429.813 112.751 429.813C114.173 429.813 115.253 430.318 115.993 431.327C116.746 432.323 117.123 433.681 117.123 435.401C117.123 436.596 116.995 437.783 116.739 438.964C116.483 440.13 116.092 441.189 115.566 442.142C115.04 443.08 114.365 443.834 113.54 444.403C112.729 444.972 111.769 445.256 110.66 445.256ZM110.874 443.507C111.556 443.507 112.153 443.286 112.665 442.846C113.191 442.391 113.632 441.779 113.988 441.011C114.343 440.243 114.606 439.369 114.777 438.388C114.962 437.392 115.054 436.354 115.054 435.274C115.054 434.079 114.841 433.162 114.414 432.522C114.002 431.882 113.376 431.562 112.537 431.562C111.855 431.562 111.25 431.79 110.724 432.245C110.212 432.685 109.779 433.29 109.423 434.058C109.068 434.826 108.797 435.707 108.613 436.703C108.442 437.684 108.357 438.715 108.357 439.795C108.357 440.99 108.57 441.907 108.997 442.547C109.423 443.187 110.049 443.507 110.874 443.507ZM122 443.614C121.687 444.694 121.196 445.64 120.528 446.45C119.859 447.261 119.063 447.915 118.139 448.413L117.136 447.816C117.833 447.09 118.423 446.358 118.907 445.619C119.39 444.879 119.81 444.033 120.165 443.08L122 443.614ZM129.845 445.256C128.423 445.256 127.335 444.758 126.581 443.763C125.842 442.753 125.472 441.388 125.472 439.668C125.472 438.473 125.6 437.293 125.856 436.127C126.112 434.946 126.503 433.887 127.029 432.949C127.555 431.996 128.224 431.235 129.034 430.666C129.859 430.097 130.826 429.813 131.935 429.813C133.357 429.813 134.438 430.318 135.177 431.327C135.931 432.323 136.308 433.681 136.308 435.401C136.308 436.596 136.18 437.783 135.924 438.964C135.668 440.13 135.277 441.189 134.751 442.142C134.225 443.08 133.549 443.834 132.724 444.403C131.914 444.972 130.954 445.256 129.845 445.256ZM130.058 443.507C130.741 443.507 131.338 443.286 131.85 442.846C132.376 442.391 132.817 441.779 133.172 441.011C133.528 440.243 133.791 439.369 133.961 438.388C134.146 437.392 134.239 436.354 134.239 435.274C134.239 434.079 134.025 433.162 133.599 432.522C133.186 431.882 132.561 431.562 131.722 431.562C131.039 431.562 130.435 431.79 129.909 432.245C129.397 432.685 128.963 433.29 128.608 434.058C128.252 434.826 127.982 435.707 127.797 436.703C127.626 437.684 127.541 438.715 127.541 439.795C127.541 440.99 127.754 441.907 128.181 442.547C128.608 443.187 129.233 443.507 130.058 443.507ZM142.634 445.256C141.212 445.256 140.125 444.758 139.371 443.763C138.632 442.753 138.262 441.388 138.262 439.668C138.262 438.473 138.39 437.293 138.646 436.127C138.902 434.946 139.293 433.887 139.819 432.949C140.345 431.996 141.013 431.235 141.824 430.666C142.649 430.097 143.616 429.813 144.725 429.813C146.147 429.813 147.228 430.318 147.967 431.327C148.721 432.323 149.097 433.681 149.097 435.401C149.097 436.596 148.969 437.783 148.714 438.964C148.458 440.13 148.067 441.189 147.54 442.142C147.014 443.08 146.339 443.834 145.514 444.403C144.703 444.972 143.744 445.256 142.634 445.256ZM142.848 443.507C143.53 443.507 144.128 443.286 144.639 442.846C145.166 442.391 145.606 441.779 145.962 441.011C146.317 440.243 146.581 439.369 146.751 438.388C146.936 437.392 147.028 436.354 147.028 435.274C147.028 434.079 146.815 433.162 146.389 432.522C145.976 431.882 145.35 431.562 144.512 431.562C143.829 431.562 143.225 431.79 142.698 432.245C142.187 432.685 141.753 433.29 141.397 434.058C141.042 434.826 140.772 435.707 140.587 436.703C140.416 437.684 140.331 438.715 140.331 439.795C140.331 440.99 140.544 441.907 140.971 442.547C141.397 443.187 142.023 443.507 142.848 443.507ZM155.424 445.256C154.002 445.256 152.914 444.758 152.161 443.763C151.421 442.753 151.051 441.388 151.051 439.668C151.051 438.473 151.179 437.293 151.435 436.127C151.691 434.946 152.082 433.887 152.609 432.949C153.135 431.996 153.803 431.235 154.614 430.666C155.438 430.097 156.405 429.813 157.514 429.813C158.936 429.813 160.017 430.318 160.757 431.327C161.51 432.323 161.887 433.681 161.887 435.401C161.887 436.596 161.759 437.783 161.503 438.964C161.247 440.13 160.856 441.189 160.33 442.142C159.804 443.08 159.128 443.834 158.304 444.403C157.493 444.972 156.533 445.256 155.424 445.256ZM155.637 443.507C156.32 443.507 156.917 443.286 157.429 442.846C157.955 442.391 158.396 441.779 158.752 441.011C159.107 440.243 159.37 439.369 159.541 438.388C159.726 437.392 159.818 436.354 159.818 435.274C159.818 434.079 159.605 433.162 159.178 432.522C158.766 431.882 158.14 431.562 157.301 431.562C156.619 431.562 156.014 431.79 155.488 432.245C154.976 432.685 154.542 433.29 154.187 434.058C153.831 434.826 153.561 435.707 153.376 436.703C153.206 437.684 153.12 438.715 153.12 439.795C153.12 440.99 153.334 441.907 153.76 442.547C154.187 443.187 154.813 443.507 155.637 443.507ZM166.763 443.614C166.451 444.694 165.96 445.64 165.292 446.45C164.623 447.261 163.827 447.915 162.903 448.413L161.9 447.816C162.597 447.09 163.187 446.358 163.671 445.619C164.154 444.879 164.573 444.033 164.929 443.08L166.763 443.614ZM174.609 445.256C173.187 445.256 172.099 444.758 171.345 443.763C170.606 442.753 170.236 441.388 170.236 439.668C170.236 438.473 170.364 437.293 170.62 436.127C170.876 434.946 171.267 433.887 171.793 432.949C172.319 431.996 172.988 431.235 173.798 430.666C174.623 430.097 175.59 429.813 176.699 429.813C178.121 429.813 179.202 430.318 179.941 431.327C180.695 432.323 181.072 433.681 181.072 435.401C181.072 436.596 180.944 437.783 180.688 438.964C180.432 440.13 180.041 441.189 179.515 442.142C178.988 443.08 178.313 443.834 177.488 444.403C176.678 444.972 175.718 445.256 174.609 445.256ZM174.822 443.507C175.504 443.507 176.102 443.286 176.614 442.846C177.14 442.391 177.581 441.779 177.936 441.011C178.292 440.243 178.555 439.369 178.725 438.388C178.91 437.392 179.003 436.354 179.003 435.274C179.003 434.079 178.789 433.162 178.363 432.522C177.95 431.882 177.325 431.562 176.486 431.562C175.803 431.562 175.199 431.79 174.673 432.245C174.161 432.685 173.727 433.29 173.371 434.058C173.016 434.826 172.746 435.707 172.561 436.703C172.39 437.684 172.305 438.715 172.305 439.795C172.305 440.99 172.518 441.907 172.945 442.547C173.371 443.187 173.997 443.507 174.822 443.507ZM187.398 445.256C185.976 445.256 184.888 444.758 184.135 443.763C183.395 442.753 183.026 441.388 183.026 439.668C183.026 438.473 183.154 437.293 183.41 436.127C183.666 434.946 184.057 433.887 184.583 432.949C185.109 431.996 185.777 431.235 186.588 430.666C187.413 430.097 188.379 429.813 189.489 429.813C190.911 429.813 191.991 430.318 192.731 431.327C193.484 432.323 193.861 433.681 193.861 435.401C193.861 436.596 193.733 437.783 193.477 438.964C193.221 440.13 192.83 441.189 192.304 442.142C191.778 443.08 191.103 443.834 190.278 444.403C189.467 444.972 188.507 445.256 187.398 445.256ZM187.612 443.507C188.294 443.507 188.891 443.286 189.403 442.846C189.929 442.391 190.37 441.779 190.726 441.011C191.081 440.243 191.344 439.369 191.515 438.388C191.7 437.392 191.792 436.354 191.792 435.274C191.792 434.079 191.579 433.162 191.152 432.522C190.74 431.882 190.114 431.562 189.275 431.562C188.593 431.562 187.988 431.79 187.462 432.245C186.95 432.685 186.517 433.29 186.161 434.058C185.806 434.826 185.535 435.707 185.351 436.703C185.18 437.684 185.095 438.715 185.095 439.795C185.095 440.99 185.308 441.907 185.735 442.547C186.161 443.187 186.787 443.507 187.612 443.507ZM200.188 445.256C198.766 445.256 197.678 444.758 196.924 443.763C196.185 442.753 195.815 441.388 195.815 439.668C195.815 438.473 195.943 437.293 196.199 436.127C196.455 434.946 196.846 433.887 197.372 432.949C197.899 431.996 198.567 431.235 199.377 430.666C200.202 430.097 201.169 429.813 202.278 429.813C203.7 429.813 204.781 430.318 205.52 431.327C206.274 432.323 206.651 433.681 206.651 435.401C206.651 436.596 206.523 437.783 206.267 438.964C206.011 440.13 205.62 441.189 205.094 442.142C204.568 443.08 203.892 443.834 203.068 444.403C202.257 444.972 201.297 445.256 200.188 445.256ZM200.401 443.507C201.084 443.507 201.681 443.286 202.193 442.846C202.719 442.391 203.16 441.779 203.515 441.011C203.871 440.243 204.134 439.369 204.305 438.388C204.49 437.392 204.582 436.354 204.582 435.274C204.582 434.079 204.369 433.162 203.942 432.522C203.53 431.882 202.904 431.562 202.065 431.562C201.382 431.562 200.778 431.79 200.252 432.245C199.74 432.685 199.306 433.29 198.951 434.058C198.595 434.826 198.325 435.707 198.14 436.703C197.97 437.684 197.884 438.715 197.884 439.795C197.884 440.99 198.098 441.907 198.524 442.547C198.951 443.187 199.577 443.507 200.401 443.507ZM215.874 433.908C217.353 433.908 218.093 434.548 218.093 435.828V436.276C218.505 435.508 219.038 434.882 219.692 434.399C220.347 433.901 221.107 433.652 221.975 433.652C222.743 433.652 223.411 433.852 223.98 434.25C224.549 434.634 224.982 435.174 225.281 435.871C225.594 436.553 225.75 437.35 225.75 438.26C225.75 439.312 225.594 440.272 225.281 441.139C224.982 441.992 224.57 442.732 224.044 443.358C223.518 443.969 222.927 444.438 222.273 444.765C221.619 445.092 220.944 445.256 220.247 445.256C219.564 445.256 218.925 445.085 218.327 444.744C217.744 444.403 217.289 443.983 216.962 443.486L215.874 449.693H213.955L216.173 437.001C216.216 436.76 216.237 436.56 216.237 436.404C216.237 435.736 215.889 435.401 215.192 435.401L215.874 433.908ZM220.076 443.55C220.745 443.55 221.356 443.336 221.911 442.91C222.48 442.469 222.935 441.864 223.276 441.097C223.617 440.329 223.788 439.447 223.788 438.452C223.788 437.485 223.567 436.724 223.127 436.169C222.686 435.601 222.11 435.316 221.399 435.316C220.83 435.316 220.283 435.494 219.756 435.849C219.244 436.205 218.804 436.703 218.434 437.343C218.064 437.982 217.801 438.736 217.645 439.604L217.261 441.758C217.574 442.327 217.979 442.767 218.477 443.08C218.974 443.393 219.508 443.55 220.076 443.55ZM230.775 445.256C230.206 445.256 229.68 445.128 229.196 444.872C228.727 444.616 228.35 444.261 228.066 443.806C227.781 443.336 227.639 442.782 227.639 442.142C227.639 441.957 227.646 441.772 227.66 441.587C227.675 441.388 227.696 441.182 227.724 440.969L228.94 433.908H230.86L229.623 440.926C229.609 441.068 229.594 441.196 229.58 441.31C229.566 441.409 229.559 441.523 229.559 441.651C229.559 442.291 229.744 442.767 230.113 443.08C230.483 443.393 230.917 443.55 231.415 443.55C231.955 443.55 232.481 443.386 232.993 443.059C233.519 442.718 233.981 442.234 234.379 441.609C234.778 440.983 235.055 440.229 235.211 439.348L236.171 433.908H238.091L236.683 441.992C236.669 442.064 236.655 442.149 236.64 442.248C236.64 442.334 236.64 442.426 236.64 442.526C236.64 442.924 236.754 443.208 236.982 443.379C237.209 443.535 237.508 443.614 237.878 443.614L237.216 445.107C236.448 445.107 235.858 444.922 235.446 444.552C235.048 444.168 234.849 443.578 234.849 442.782V442.59C233.811 444.367 232.453 445.256 230.775 445.256ZM241.506 437.023C241.52 436.951 241.527 436.873 241.527 436.788C241.541 436.688 241.548 436.589 241.548 436.489C241.548 436.091 241.435 435.814 241.207 435.657C240.98 435.487 240.681 435.401 240.311 435.401L240.973 433.908C241.726 433.908 242.302 434.093 242.7 434.463C243.113 434.818 243.319 435.352 243.319 436.063V436.489C243.731 435.48 244.257 434.754 244.897 434.314C245.551 433.873 246.291 433.652 247.116 433.652C247.443 433.652 247.72 433.681 247.947 433.738C248.189 433.78 248.388 433.837 248.545 433.908L247.692 435.785C247.521 435.714 247.343 435.665 247.158 435.636C246.973 435.608 246.76 435.593 246.518 435.593C246.006 435.593 245.495 435.778 244.983 436.148C244.485 436.504 244.03 437.101 243.618 437.94C243.219 438.779 242.892 439.931 242.636 441.395L242.018 445H240.098L241.506 437.023ZM256.618 436.148C256.263 435.921 255.879 435.736 255.467 435.593C255.054 435.437 254.599 435.359 254.101 435.359C253.319 435.359 252.63 435.565 252.032 435.977C251.449 436.39 250.994 436.951 250.667 437.662C250.34 438.359 250.177 439.148 250.177 440.03C250.177 441.111 250.447 441.971 250.987 442.611C251.542 443.237 252.281 443.55 253.206 443.55C253.746 443.55 254.222 443.486 254.635 443.358C255.047 443.23 255.424 443.08 255.765 442.91L256 444.595C255.644 444.751 255.211 444.9 254.699 445.043C254.201 445.185 253.597 445.256 252.886 445.256C251.961 445.256 251.144 445.05 250.433 444.637C249.736 444.225 249.188 443.649 248.79 442.91C248.406 442.156 248.214 441.281 248.214 440.286C248.214 439.092 248.456 437.997 248.94 437.001C249.437 435.992 250.134 435.181 251.03 434.57C251.94 433.958 253.014 433.652 254.251 433.652C254.919 433.652 255.509 433.738 256.021 433.908C256.547 434.065 257.009 434.264 257.408 434.506L256.618 436.148ZM266.749 437.151C266.749 436.61 266.586 436.176 266.259 435.849C265.946 435.508 265.533 435.338 265.022 435.338C264.524 435.338 263.976 435.515 263.379 435.871C262.796 436.226 262.263 436.781 261.779 437.534C261.296 438.288 260.947 439.262 260.734 440.457L259.945 445H258.025L260.798 429.216H262.718L261.481 436.233C261.922 435.451 262.497 434.826 263.208 434.356C263.934 433.887 264.694 433.652 265.491 433.652C266.472 433.652 267.247 433.951 267.816 434.548C268.399 435.131 268.69 435.849 268.69 436.703C268.69 437.058 268.648 437.506 268.562 438.046L267.346 445H265.427L266.6 438.366C266.671 438.025 266.714 437.776 266.728 437.62C266.742 437.449 266.749 437.293 266.749 437.151ZM270.586 440.627C270.586 439.248 270.884 438.039 271.482 437.001C272.093 435.949 272.932 435.131 273.999 434.548C275.065 433.951 276.281 433.652 277.646 433.652C278.485 433.652 279.217 433.738 279.843 433.908C280.483 434.079 281.009 434.25 281.421 434.42L280.078 441.992C280.063 442.064 280.049 442.149 280.035 442.248C280.035 442.334 280.035 442.426 280.035 442.526C280.035 442.924 280.149 443.208 280.376 443.379C280.604 443.535 280.902 443.614 281.272 443.614L280.611 445.107C279.843 445.107 279.253 444.922 278.841 444.552C278.442 444.168 278.243 443.578 278.243 442.782C277.845 443.464 277.34 444.047 276.729 444.531C276.132 445.014 275.428 445.256 274.617 445.256C273.92 445.256 273.266 445.071 272.655 444.701C272.043 444.317 271.546 443.784 271.162 443.102C270.778 442.405 270.586 441.58 270.586 440.627ZM279.31 435.551C279.04 435.465 278.755 435.401 278.457 435.359C278.172 435.302 277.824 435.274 277.411 435.274C276.43 435.274 275.577 435.494 274.852 435.935C274.127 436.376 273.558 436.987 273.145 437.769C272.747 438.537 272.548 439.412 272.548 440.393C272.548 441.075 272.669 441.651 272.911 442.12C273.167 442.59 273.494 442.945 273.892 443.187C274.29 443.429 274.703 443.55 275.129 443.55C275.712 443.55 276.245 443.35 276.729 442.952C277.212 442.554 277.625 442 277.966 441.289C278.321 440.578 278.577 439.767 278.734 438.857L279.31 435.551ZM290.973 436.319C290.561 436.034 290.098 435.785 289.586 435.572C289.089 435.359 288.52 435.252 287.88 435.252C287.212 435.252 286.693 435.366 286.323 435.593C285.953 435.821 285.768 436.12 285.768 436.489C285.768 436.703 285.825 436.909 285.939 437.108C286.067 437.293 286.287 437.492 286.6 437.705C286.927 437.918 287.382 438.174 287.965 438.473C288.932 438.956 289.65 439.461 290.12 439.987C290.589 440.499 290.824 441.132 290.824 441.886C290.824 442.639 290.625 443.265 290.226 443.763C289.828 444.261 289.295 444.637 288.627 444.893C287.958 445.135 287.205 445.256 286.366 445.256C285.498 445.256 284.73 445.149 284.062 444.936C283.408 444.708 282.839 444.417 282.356 444.061L283.443 442.483C283.827 442.796 284.282 443.059 284.809 443.272C285.335 443.486 285.911 443.592 286.536 443.592C287.247 443.592 287.809 443.457 288.221 443.187C288.634 442.917 288.84 442.583 288.84 442.184C288.84 441.815 288.684 441.473 288.371 441.161C288.072 440.848 287.482 440.471 286.6 440.03C285.889 439.675 285.335 439.333 284.937 439.006C284.538 438.665 284.261 438.302 284.105 437.918C283.948 437.534 283.87 437.094 283.87 436.596C283.87 436.027 284.041 435.522 284.382 435.082C284.723 434.641 285.2 434.292 285.811 434.036C286.423 433.78 287.126 433.652 287.923 433.652C288.719 433.652 289.43 433.759 290.056 433.972C290.696 434.171 291.257 434.413 291.741 434.698L290.973 436.319ZM297.464 445.256C296.526 445.256 295.694 445.057 294.969 444.659C294.258 444.246 293.696 443.663 293.284 442.91C292.886 442.142 292.687 441.239 292.687 440.201C292.687 439.02 292.928 437.933 293.412 436.937C293.909 435.942 294.606 435.146 295.502 434.548C296.412 433.951 297.472 433.652 298.68 433.652C299.505 433.652 300.202 433.809 300.771 434.122C301.354 434.435 301.802 434.84 302.114 435.338C302.427 435.835 302.584 436.368 302.584 436.937C302.584 437.719 302.399 438.366 302.029 438.878C301.659 439.39 301.183 439.788 300.6 440.073C300.017 440.343 299.384 440.535 298.702 440.649C298.033 440.762 297.393 440.819 296.782 440.819C296.398 440.819 296.014 440.805 295.63 440.777C295.26 440.734 294.933 440.691 294.649 440.649C294.763 441.587 295.097 442.305 295.651 442.803C296.206 443.301 296.917 443.55 297.784 443.55C298.495 443.55 299.128 443.457 299.683 443.272C300.237 443.087 300.707 442.903 301.091 442.718L301.261 444.424C300.835 444.623 300.294 444.815 299.64 445C298.986 445.171 298.261 445.256 297.464 445.256ZM298.531 435.274C297.863 435.274 297.258 435.444 296.718 435.785C296.178 436.112 295.73 436.568 295.374 437.151C295.033 437.719 294.805 438.373 294.692 439.113C295.019 439.17 295.346 439.22 295.673 439.262C296.014 439.291 296.384 439.305 296.782 439.305C297.976 439.305 298.922 439.141 299.619 438.814C300.316 438.473 300.664 437.897 300.664 437.087C300.664 436.589 300.465 436.162 300.067 435.807C299.683 435.451 299.171 435.274 298.531 435.274ZM314.008 445.107C313.24 445.107 312.65 444.922 312.237 444.552C311.839 444.168 311.64 443.571 311.64 442.76C311.228 443.443 310.708 444.033 310.083 444.531C309.457 445.014 308.732 445.256 307.907 445.256C307.196 445.256 306.528 445.071 305.902 444.701C305.276 444.317 304.772 443.784 304.388 443.102C304.018 442.405 303.833 441.58 303.833 440.627C303.833 439.532 303.997 438.558 304.324 437.705C304.651 436.838 305.084 436.105 305.625 435.508C306.179 434.911 306.784 434.456 307.438 434.143C308.106 433.816 308.782 433.652 309.464 433.652C310.218 433.652 310.865 433.837 311.405 434.207C311.96 434.577 312.386 435.032 312.685 435.572L313.816 429.216H315.735L313.474 441.992C313.46 442.064 313.446 442.149 313.432 442.248C313.432 442.334 313.432 442.426 313.432 442.526C313.432 442.924 313.545 443.208 313.773 443.379C314 443.535 314.299 443.614 314.669 443.614L314.008 445.107ZM308.419 443.55C308.959 443.55 309.471 443.379 309.955 443.038C310.453 442.696 310.879 442.22 311.235 441.609C311.604 440.983 311.86 440.251 312.003 439.412L312.386 437.215C312.102 436.617 311.718 436.155 311.235 435.828C310.751 435.487 310.218 435.316 309.635 435.316C308.981 435.316 308.355 435.522 307.758 435.935C307.175 436.333 306.698 436.909 306.329 437.662C305.973 438.402 305.795 439.298 305.795 440.35C305.795 441.047 305.916 441.637 306.158 442.12C306.414 442.59 306.741 442.945 307.139 443.187C307.552 443.429 307.978 443.55 308.419 443.55Z" fill="#F3F3F3"/>
<path d="M409.888 279.754C402.132 314.828 383.589 346.645 356.816 370.817L297.862 306.637C311.243 294.555 320.512 278.652 324.388 261.122L409.888 279.754Z" fill="#195818"/>
<path d="M245.069 54.0254C254.357 54.0254 263.629 54.7648 272.8 56.2365L258.929 142.661C254.346 141.925 249.711 141.556 245.069 141.556V54.0254Z" fill="#CBFB45"/>
<path d="M273.069 58.8647C308.697 65.3917 341.423 82.8133 366.731 108.726L304.111 169.885C291.461 156.933 275.104 148.225 257.296 144.962L273.069 58.8647Z" fill="#3789B8"/>
<path d="M351.438 369.96C321.928 391.245 286.516 402.801 250.131 403.022C213.746 403.243 178.197 392.117 148.43 371.193C118.663 350.268 96.1585 320.585 84.0475 286.274C71.9365 251.963 70.8214 214.731 80.8574 179.756L164.993 203.899C159.976 221.38 160.534 239.99 166.587 257.14C172.64 274.289 183.889 289.125 198.767 299.584C213.645 310.043 231.414 315.604 249.6 315.493C267.786 315.383 285.486 309.607 300.236 298.968L351.438 369.96Z" fill="#6E8727"/>
<path d="M81.4189 177.841C93.0727 138.909 117.913 105.247 151.676 82.6304L200.39 155.353C183.514 166.658 171.098 183.483 165.273 202.942L123.346 190.392L81.4189 177.841Z" fill="#FA5757"/>
<path d="M150.667 82.9714C178.743 64.4403 211.565 54.3939 245.203 54.0352L246.136 141.561C229.323 141.74 212.918 146.761 198.885 156.024L150.667 82.9714Z" fill="#DEEBBC"/>
<path d="M365.038 109.05C387.987 132.487 403.375 161.902 409.36 193.775L323.32 209.86C320.329 193.929 312.638 179.226 301.167 167.512L365.038 109.05Z" fill="#DEEBBC"/>
<path d="M402.655 173.29C416.419 206.469 419.479 243.168 411.412 278.325L326.307 259.566C330.339 241.994 328.81 223.651 321.93 207.067L402.655 173.29Z" fill="#B8379C"/>
</svg>
